<?xml version="1.0" encoding="UTF-8" standalone="no"?>
<!DOCTYPE svg PUBLIC "-//W3C//DTD SVG 1.1//EN"
 "http://www.w3.org/Graphics/SVG/1.1/DTD/svg11.dtd">


<svg width="2028pt" height="104pt"
 viewBox="0.00 0.00 2028.00 104.00" xmlns="http://www.w3.org/2000/svg" xmlns:xlink="http://www.w3.org/1999/xlink">
<g id="graph0" class="graph" transform="scale(1 1) rotate(0) translate(4 99.92)">
<title>G</title>
<polygon fill="white" stroke="none" points="-4,4 -4,-99.92 2023.85,-99.92 2023.85,4 -4,4"/>

<g id="node1" class="node">
<title>Root agent</title>
<polygon fill="none" stroke="black" stroke-width="1.6" points="140.7,-95.92 0,-95.92 0,-49 140.7,-49 140.7,-95.92"/>
<text xml:space="preserve" text-anchor="middle" x="70.35" y="-63.96" font-family="Helvetica,sans-Serif" font-size="20.00">Root agent</text>
</g>

<g id="node2" class="node">
<title>Context graph</title>
<polygon fill="none" stroke="black" stroke-width="1.6" points="2019.85,-95.92 1851.4,-95.92 1851.4,-49 2019.85,-49 2019.85,-95.92"/>
<text xml:space="preserve" text-anchor="middle" x="1935.63" y="-63.96" font-family="Helvetica,sans-Serif" font-size="20.00">Context graph</text>
</g>

<g id="edge1" class="edge">
<title>Root agent&#45;&gt;Context graph</title>
<path fill="none" stroke="black" d="M141.48,-72.46C141.48,-72.46 1839.19,-72.46 1839.19,-72.46"/>
<polygon fill="black" stroke="black" points="1839.19,-75.96 1849.19,-72.46 1839.19,-68.96 1839.19,-75.96"/>
</g>

<g id="node3" class="node">
<title>Literature retrieval</title>
<polygon fill="none" stroke="black" stroke-width="1.6" points="406.15,-46.92 201.7,-46.92 201.7,0 406.15,0 406.15,-46.92"/>
<text xml:space="preserve" text-anchor="middle" x="303.92" y="-14.96" font-family="Helvetica,sans-Serif" font-size="20.00">Literature retrieval</text>
</g>

<g id="edge2" class="edge">
<title>Root agent&#45;&gt;Literature retrieval</title>
<path fill="none" stroke="black" d="M69.85,-48.25C69.85,-35.9 69.85,-23.46 69.85,-23.46 69.85,-23.46 189.4,-23.46 189.4,-23.46"/>
<polygon fill="black" stroke="black" points="189.4,-26.96 199.4,-23.46 189.4,-19.96 189.4,-26.96"/>
</g>

<g id="node4" class="node">
<title>Decision protocol</title>
<polygon fill="none" stroke="black" stroke-width="1.6" points="663.35,-46.92 467.15,-46.92 467.15,0 663.35,0 663.35,-46.92"/>
<text xml:space="preserve" text-anchor="middle" x="565.25" y="-14.96" font-family="Helvetica,sans-Serif" font-size="20.00">Decision protocol</text>
</g>

<g id="edge3" class="edge">
<title>Literature retrieval&#45;&gt;Decision protocol</title>
<path fill="none" stroke="black" d="M406.83,-23.46C406.83,-23.46 455.19,-23.46 455.19,-23.46"/>
<polygon fill="black" stroke="black" points="455.19,-26.96 465.19,-23.46 455.19,-19.96 455.19,-26.96"/>
</g>

<g id="node5" class="node">
<title>Evidence protocol</title>
<polygon fill="none" stroke="black" stroke-width="1.6" points="926.55,-46.92 724.35,-46.92 724.35,0 926.55,0 926.55,-46.92"/>
<text xml:space="preserve" text-anchor="middle" x="825.45" y="-14.96" font-family="Helvetica,sans-Serif" font-size="20.00">Evidence protocol</text>
</g>

<g id="edge4" class="edge">
<title>Decision protocol&#45;&gt;Evidence protocol</title>
<path fill="none" stroke="black" d="M663.99,-23.46C663.99,-23.46 712.24,-23.46 712.24,-23.46"/>
<polygon fill="black" stroke="black" points="712.24,-26.96 722.24,-23.46 712.24,-19.96 712.24,-26.96"/>
</g>

<g id="node6" class="node">
<title>Sandbox execution</title>
<polygon fill="none" stroke="black" stroke-width="1.6" points="1201,-46.92 987.55,-46.92 987.55,0 1201,0 1201,-46.92"/>
<text xml:space="preserve" text-anchor="middle" x="1094.28" y="-14.96" font-family="Helvetica,sans-Serif" font-size="20.00">Sandbox execution</text>
</g>

<g id="edge5" class="edge">
<title>Evidence protocol&#45;&gt;Sandbox execution</title>
<path fill="none" stroke="black" d="M927.08,-23.46C927.08,-23.46 975.61,-23.46 975.61,-23.46"/>
<polygon fill="black" stroke="black" points="975.61,-26.96 985.61,-23.46 975.61,-19.96 975.61,-26.96"/>
</g>

<g id="node7" class="node">
<title>Deterministic validator</title>
<polygon fill="none" stroke="black" stroke-width="1.6" points="1500.95,-46.92 1262,-46.92 1262,0 1500.95,0 1500.95,-46.92"/>
<text xml:space="preserve" text-anchor="middle" x="1381.48" y="-14.96" font-family="Helvetica,sans-Serif" font-size="20.00">Deterministic validator</text>
</g>

<g id="edge6" class="edge">
<title>Sandbox execution&#45;&gt;Deterministic validator</title>
<path fill="none" stroke="black" d="M1201.63,-23.46C1201.63,-23.46 1249.71,-23.46 1249.71,-23.46"/>
<polygon fill="black" stroke="black" points="1249.71,-26.96 1259.71,-23.46 1249.71,-19.96 1249.71,-26.96"/>
</g>

<g id="node8" class="node">
<title>Manuscript synthesis</title>
<polygon fill="none" stroke="black" stroke-width="1.6" points="1790.4,-46.92 1561.95,-46.92 1561.95,0 1790.4,0 1790.4,-46.92"/>
<text xml:space="preserve" text-anchor="middle" x="1676.18" y="-14.96" font-family="Helvetica,sans-Serif" font-size="20.00">Manuscript synthesis</text>
</g>

<g id="edge7" class="edge">
<title>Deterministic validator&#45;&gt;Manuscript synthesis</title>
<path fill="none" stroke="black" d="M1501.34,-23.46C1501.34,-23.46 1549.67,-23.46 1549.67,-23.46"/>
<polygon fill="black" stroke="black" points="1549.67,-26.96 1559.67,-23.46 1549.67,-19.96 1549.67,-26.96"/>
</g>

<g id="edge8" class="edge">
<title>Manuscript synthesis&#45;&gt;Context graph</title>
<path fill="none" stroke="black" d="M1790.83,-23.46C1860.39,-23.46 1935.85,-23.46 1935.85,-23.46 1935.85,-23.46 1935.85,-36.73 1935.85,-36.73"/>
<polygon fill="black" stroke="black" points="1932.35,-36.73 1935.85,-46.73 1939.35,-36.73 1932.35,-36.73"/>
</g>
</g>
</svg>
