<?xml version="1.0" encoding="UTF-8" standalone="no"?>
<!DOCTYPE svg PUBLIC "-//W3C//DTD SVG 1.1//EN"
 "http://www.w3.org/Graphics/SVG/1.1/DTD/svg11.dtd">


<svg width="366pt" height="531pt"
 viewBox="0.00 0.00 366.00 531.00" xmlns="http://www.w3.org/2000/svg" xmlns:xlink="http://www.w3.org/1999/xlink">
<g id="graph0" class="graph" transform="scale(1 1) rotate(0) translate(4 527.39)">
<title>EvidenceChain</title>
<polygon fill="white" stroke="none" points="-4,4 -4,-527.39 362,-527.39 362,4 -4,4"/>
<g id="clust1" class="cluster">
<title>cluster_source_audit</title>
<polygon fill="#f5f5f5" stroke="#666666" points="46,-286.14 46,-515.39 312,-515.39 312,-286.14 46,-286.14"/>
<text xml:space="preserve" text-anchor="middle" x="179" y="-501.42" font-family="Helvetica,sans-Serif" font-weight="bold" font-size="10.50">Level 1: Source &amp; Cryptographic Excerpt Audit</text>
</g>
<g id="clust2" class="cluster">
<title>cluster_system_audit</title>
<polygon fill="#f5f5f5" stroke="#666666" points="8,-8 8,-261.14 350,-261.14 350,-8 8,-8"/>
<text xml:space="preserve" text-anchor="middle" x="179" y="-247.17" font-family="Helvetica,sans-Serif" font-weight="bold" font-size="10.50">Level 2: Build Environment &amp; Artifact Verification</text>
</g>

<g id="node1" class="node">
<title>src_arch</title>
<polygon fill="#ffffff" stroke="#222222" stroke-width="1.2" points="271.89,-486.14 268.89,-490.14 247.89,-490.14 244.89,-486.14 86.11,-486.14 86.11,-450.14 271.89,-450.14 271.89,-486.14"/>
<text xml:space="preserve" text-anchor="middle" x="179" y="-468.87" font-family="Helvetica,sans-Serif" font-size="9.50" fill="#111111">Source archive</text>
<text xml:space="preserve" text-anchor="middle" x="179" y="-459.12" font-family="Helvetica,sans-Serif" font-size="9.50" fill="#111111">(Pinned Tarball URL • SHA&#45;256 Digest)</text>
</g>

<g id="node2" class="node">
<title>dig_ver</title>
<polygon fill="#ffffff" stroke="#222222" stroke-width="1.1" points="301.52,-409.14 56.48,-409.14 56.48,-373.14 301.52,-373.14 301.52,-409.14"/>
<text xml:space="preserve" text-anchor="middle" x="179" y="-391.87" font-family="Helvetica,sans-Serif" font-size="9.50" fill="#111111">Digest verification</text>
<text xml:space="preserve" text-anchor="middle" x="179" y="-382.12" font-family="Helvetica,sans-Serif" font-size="9.50" fill="#111111">(Bit&#45;for&#45;Bit Un&#45;tar • 130 Archives, 782 Files Checked)</text>
</g>

<g id="edge1" class="edge">
<title>src_arch&#45;&gt;dig_ver</title>
<path fill="none" stroke="#333333" d="M179,-449.75C179,-440.38 179,-428.63 179,-418.19"/>
<polygon fill="#333333" stroke="#333333" points="181.63,-418.46 179,-410.96 176.38,-418.46 181.63,-418.46"/>
<text xml:space="preserve" text-anchor="middle" x="214.62" y="-426.07" font-family="Helvetica,sans-Serif" font-size="8.50" fill="#222222">validates download</text>
</g>

<g id="node3" class="node">
<title>claim_loc</title>
<polygon fill="#ffffff" stroke="#222222" stroke-width="1.2" points="293.27,-332.14 58.73,-332.14 58.73,-296.14 299.27,-296.14 299.27,-326.14 293.27,-332.14"/>
<polyline fill="none" stroke="#222222" stroke-width="1.2" points="293.27,-332.14 293.27,-326.14"/>
<polyline fill="none" stroke="#222222" stroke-width="1.2" points="299.27,-326.14 293.27,-326.14"/>
<text xml:space="preserve" text-anchor="middle" x="179" y="-314.87" font-family="Helvetica,sans-Serif" font-size="9.50" fill="#111111">Claim locator</text>
<text xml:space="preserve" text-anchor="middle" x="179" y="-305.12" font-family="Helvetica,sans-Serif" font-size="9.50" fill="#111111">(178 Reviewed Exact Line Spans • Excerpt Hashes)</text>
</g>

<g id="edge2" class="edge">
<title>dig_ver&#45;&gt;claim_loc</title>
<path fill="none" stroke="#333333" d="M179,-372.75C179,-363.44 179,-351.79 179,-341.41"/>
<polygon fill="#333333" stroke="#333333" points="181.63,-341.72 179,-334.22 176.38,-341.72 181.63,-341.72"/>
<text xml:space="preserve" text-anchor="middle" x="221" y="-349.07" font-family="Helvetica,sans-Serif" font-size="8.50" fill="#222222">extracts physical lines</text>
</g>

<g id="node4" class="node">
<title>loc_gate</title>
<polygon fill="#ffffff" stroke="#222222" stroke-width="1.3" points="336.12,-191.2 336.12,-212.69 244.08,-227.89 113.92,-227.89 21.88,-212.69 21.88,-191.2 113.92,-176 244.08,-176 336.12,-191.2"/>
<polygon fill="none" stroke="#222222" stroke-width="1.3" points="340.12,-187.81 340.12,-216.09 244.41,-231.89 113.59,-231.89 17.88,-216.09 17.88,-187.81 113.59,-172 244.41,-172 340.12,-187.81"/>
<text xml:space="preserve" text-anchor="middle" x="179" y="-202.67" font-family="Helvetica,sans-Serif" font-size="9.50" fill="#111111">Locator gate</text>
<text xml:space="preserve" text-anchor="middle" x="179" y="-192.92" font-family="Helvetica,sans-Serif" font-size="9.50" fill="#111111">(Zero Stale Evidence Enforced on Commit)</text>
</g>

<g id="edge5" class="edge">
<title>claim_loc&#45;&gt;loc_gate</title>
<path fill="none" stroke="#333333" stroke-width="1.3" d="M179,-295.92C179,-281.49 179,-260.34 179,-241.85"/>
<polygon fill="#333333" stroke="#333333" stroke-width="1.3" points="181.63,-241.94 179,-234.44 176.38,-241.94 181.63,-241.94"/>
<text xml:space="preserve" text-anchor="middle" x="219.12" y="-270.07" font-family="Helvetica,sans-Serif" font-size="8.50" fill="#222222">cryptographic binding</text>
</g>

<g id="node5" class="node">
<title>clean_clone</title>
<polygon fill="#ffffff" stroke="#222222" stroke-width="1.1" points="270.02,-131 87.98,-131 87.98,-95 270.02,-95 270.02,-131"/>
<text xml:space="preserve" text-anchor="middle" x="179" y="-113.72" font-family="Helvetica,sans-Serif" font-size="9.50" fill="#111111">Clean clone validation</text>
<text xml:space="preserve" text-anchor="middle" x="179" y="-103.97" font-family="Helvetica,sans-Serif" font-size="9.50" fill="#111111">(Isolated Sandbox Container Rebuild)</text>
</g>

<g id="edge3" class="edge">
<title>loc_gate&#45;&gt;clean_clone</title>
<path fill="none" stroke="#333333" d="M179,-171.51C179,-161.43 179,-150.22 179,-140.4"/>
<polygon fill="#333333" stroke="#333333" points="181.63,-140.5 179,-133 176.38,-140.5 181.63,-140.5"/>
<text xml:space="preserve" text-anchor="middle" x="212.38" y="-147.93" font-family="Helvetica,sans-Serif" font-size="8.50" fill="#222222">verifies freshness</text>
</g>

<g id="node6" class="node">
<title>repro_receipt</title>
<polygon fill="#ffffff" stroke="#222222" stroke-width="1.3" points="271.52,-54 86.48,-54 86.48,-18 271.52,-18 271.52,-54"/>
<text xml:space="preserve" text-anchor="middle" x="179" y="-36.73" font-family="Helvetica,sans-Serif" font-size="9.50" fill="#111111">Reproducible build receipt</text>
<text xml:space="preserve" text-anchor="middle" x="179" y="-26.98" font-family="Helvetica,sans-Serif" font-size="9.50" fill="#111111">(Byte&#45;Identical DOCX/PDF Confirmed)</text>
</g>

<g id="edge4" class="edge">
<title>clean_clone&#45;&gt;repro_receipt</title>
<path fill="none" stroke="#333333" d="M179,-94.6C179,-85.3 179,-73.65 179,-63.27"/>
<polygon fill="#333333" stroke="#333333" points="181.63,-63.57 179,-56.07 176.38,-63.57 181.63,-63.57"/>
<text xml:space="preserve" text-anchor="middle" x="216.12" y="-70.92" font-family="Helvetica,sans-Serif" font-size="8.50" fill="#222222">checks byte identity</text>
</g>
</g>
</svg>
