<?xml version="1.0" encoding="UTF-8" standalone="no"?>
<!DOCTYPE svg PUBLIC "-//W3C//DTD SVG 1.1//EN"
 "http://www.w3.org/Graphics/SVG/1.1/DTD/svg11.dtd">


<svg width="583pt" height="379pt"
 viewBox="0.00 0.00 583.00 379.00" xmlns="http://www.w3.org/2000/svg" xmlns:xlink="http://www.w3.org/1999/xlink">
<g id="graph0" class="graph" transform="scale(1 1) rotate(0) translate(4 374.68)">
<title>G</title>
<polygon fill="white" stroke="none" points="-4,4 -4,-374.68 578.7,-374.68 578.7,4 -4,4"/>

<g id="node1" class="node">
<title>Minimal harness</title>
<polygon fill="none" stroke="black" stroke-width="1.6" points="188.7,-370.68 0,-370.68 0,-323.76 188.7,-323.76 188.7,-370.68"/>
<text xml:space="preserve" text-anchor="middle" x="94.35" y="-338.72" font-family="Helvetica,sans-Serif" font-size="20.00">Minimal harness</text>
</g>

<g id="node2" class="node">
<title>Expressive harness</title>
<polygon fill="none" stroke="black" stroke-width="1.6" points="317.95,-262.76 100.75,-262.76 100.75,-215.84 317.95,-215.84 317.95,-262.76"/>
<text xml:space="preserve" text-anchor="middle" x="209.35" y="-230.8" font-family="Helvetica,sans-Serif" font-size="20.00">Expressive harness</text>
</g>

<g id="edge1" class="edge">
<title>Minimal harness&#45;&gt;Expressive harness</title>
<path fill="none" stroke="black" d="M144.72,-323C144.72,-323 144.72,-274.95 144.72,-274.95"/>
<polygon fill="black" stroke="black" points="148.23,-274.95 144.73,-264.95 141.23,-274.95 148.23,-274.95"/>
</g>

<g id="node3" class="node">
<title>Accountable research harness</title>
<polygon fill="none" stroke="black" stroke-width="1.6" points="496.95,-154.84 183.75,-154.84 183.75,-107.92 496.95,-107.92 496.95,-154.84"/>
<text xml:space="preserve" text-anchor="middle" x="340.35" y="-122.88" font-family="Helvetica,sans-Serif" font-size="20.00">Accountable research harness</text>
</g>

<g id="edge2" class="edge">
<title>Expressive harness&#45;&gt;Accountable research harness</title>
<path fill="none" stroke="black" d="M250.85,-215.08C250.85,-215.08 250.85,-167.03 250.85,-167.03"/>
<polygon fill="black" stroke="black" points="254.35,-167.03 250.85,-157.03 247.35,-167.03 254.35,-167.03"/>
</g>

<g id="node6" class="node">
<title>This study</title>
<polygon fill="none" stroke="black" stroke-width="1.6" points="406.95,-46.92 273.75,-46.92 273.75,0 406.95,0 406.95,-46.92"/>
<text xml:space="preserve" text-anchor="middle" x="340.35" y="-14.96" font-family="Helvetica,sans-Serif" font-size="20.00">This study</text>
</g>

<g id="edge5" class="edge">
<title>Accountable research harness&#45;&gt;This study</title>
<path fill="none" stroke="black" d="M340.35,-107.16C340.35,-107.16 340.35,-59.11 340.35,-59.11"/>
<polygon fill="black" stroke="black" points="343.85,-59.11 340.35,-49.11 336.85,-59.11 343.85,-59.11"/>
</g>

<g id="node4" class="node">
<title>Capability axis</title>
<polygon fill="none" stroke="black" stroke-width="1.6" points="410.08,-370.68 238.63,-370.68 238.63,-323.76 410.08,-323.76 410.08,-370.68"/>
<text xml:space="preserve" text-anchor="middle" x="324.35" y="-338.72" font-family="Helvetica,sans-Serif" font-size="20.00">Capability axis</text>
</g>

<g id="edge3" class="edge">
<title>Capability axis&#45;&gt;Expressive harness</title>
<path fill="none" stroke="black" d="M278.29,-323C278.29,-323 278.29,-274.95 278.29,-274.95"/>
<polygon fill="black" stroke="black" points="281.79,-274.95 278.29,-264.95 274.79,-274.95 281.79,-274.95"/>
</g>

<g id="node5" class="node">
<title>Accountability axis</title>
<polygon fill="none" stroke="black" stroke-width="1.6" points="574.7,-262.76 368,-262.76 368,-215.84 574.7,-215.84 574.7,-262.76"/>
<text xml:space="preserve" text-anchor="middle" x="471.35" y="-230.8" font-family="Helvetica,sans-Serif" font-size="20.00">Accountability axis</text>
</g>

<g id="edge4" class="edge">
<title>Accountability axis&#45;&gt;Accountable research harness</title>
<path fill="none" stroke="black" d="M432.48,-215.08C432.48,-215.08 432.48,-167.03 432.48,-167.03"/>
<polygon fill="black" stroke="black" points="435.98,-167.03 432.48,-157.03 428.98,-167.03 435.98,-167.03"/>
</g>
</g>
</svg>
