<?xml version="1.0" encoding="UTF-8" standalone="no"?>
<!DOCTYPE svg PUBLIC "-//W3C//DTD SVG 1.1//EN"
 "http://www.w3.org/Graphics/SVG/1.1/DTD/svg11.dtd">


<svg width="788pt" height="271pt"
 viewBox="0.00 0.00 788.00 271.00" xmlns="http://www.w3.org/2000/svg" xmlns:xlink="http://www.w3.org/1999/xlink">
<g id="graph0" class="graph" transform="scale(1 1) rotate(0) translate(4 266.76)">
<title>G</title>
<polygon fill="white" stroke="none" points="-4,4 -4,-266.76 783.7,-266.76 783.7,4 -4,4"/>

<g id="node1" class="node">
<title>C00 baseline</title>
<polygon fill="none" stroke="black" stroke-width="1.6" points="160.2,-262.76 0,-262.76 0,-215.84 160.2,-215.84 160.2,-262.76"/>
<text xml:space="preserve" text-anchor="middle" x="80.1" y="-230.8" font-family="Helvetica,sans-Serif" font-size="20.00">C00 baseline</text>
</g>

<g id="node5" class="node">
<title>Budget matching</title>
<polygon fill="none" stroke="black" stroke-width="1.6" points="517.7,-154.84 324.5,-154.84 324.5,-107.92 517.7,-107.92 517.7,-154.84"/>
<text xml:space="preserve" text-anchor="middle" x="421.1" y="-122.88" font-family="Helvetica,sans-Serif" font-size="20.00">Budget matching</text>
</g>

<g id="edge1" class="edge">
<title>C00 baseline&#45;&gt;Budget matching</title>
<path fill="none" stroke="black" d="M80.1,-215.26C80.1,-183.36 80.1,-131 80.1,-131 80.1,-131 312.33,-131 312.33,-131"/>
<polygon fill="black" stroke="black" points="312.33,-134.5 322.33,-131 312.33,-127.5 312.33,-134.5"/>
</g>

<g id="node2" class="node">
<title>C01 context only</title>
<polygon fill="none" stroke="black" stroke-width="1.6" points="401.58,-262.76 210.63,-262.76 210.63,-215.84 401.58,-215.84 401.58,-262.76"/>
<text xml:space="preserve" text-anchor="middle" x="306.1" y="-230.8" font-family="Helvetica,sans-Serif" font-size="20.00">C01 context only</text>
</g>

<g id="edge2" class="edge">
<title>C01 context only&#45;&gt;Budget matching</title>
<path fill="none" stroke="black" d="M363.04,-215.08C363.04,-215.08 363.04,-167.03 363.04,-167.03"/>
<polygon fill="black" stroke="black" points="366.54,-167.03 363.04,-157.03 359.54,-167.03 366.54,-167.03"/>
</g>

<g id="node3" class="node">
<title>C10 tools only</title>
<polygon fill="none" stroke="black" stroke-width="1.6" points="620.7,-262.76 451.5,-262.76 451.5,-215.84 620.7,-215.84 620.7,-262.76"/>
<text xml:space="preserve" text-anchor="middle" x="536.1" y="-230.8" font-family="Helvetica,sans-Serif" font-size="20.00">C10 tools only</text>
</g>

<g id="edge3" class="edge">
<title>C10 tools only&#45;&gt;Budget matching</title>
<path fill="none" stroke="black" d="M484.6,-215.08C484.6,-215.08 484.6,-167.03 484.6,-167.03"/>
<polygon fill="black" stroke="black" points="488.1,-167.03 484.6,-157.03 481.1,-167.03 488.1,-167.03"/>
</g>

<g id="node4" class="node">
<title>C11 full</title>
<polygon fill="none" stroke="black" stroke-width="1.6" points="779.7,-262.76 670.5,-262.76 670.5,-215.84 779.7,-215.84 779.7,-262.76"/>
<text xml:space="preserve" text-anchor="middle" x="725.1" y="-230.8" font-family="Helvetica,sans-Serif" font-size="20.00">C11 full</text>
</g>

<g id="edge4" class="edge">
<title>C11 full&#45;&gt;Budget matching</title>
<path fill="none" stroke="black" d="M725.1,-215.26C725.1,-183.36 725.1,-131 725.1,-131 725.1,-131 529.64,-131 529.64,-131"/>
<polygon fill="black" stroke="black" points="529.64,-127.5 519.64,-131 529.64,-134.5 529.64,-127.5"/>
</g>

<g id="node6" class="node">
<title>Pilot block 16 episodes</title>
<polygon fill="none" stroke="black" stroke-width="1.6" points="544.7,-46.92 297.5,-46.92 297.5,0 544.7,0 544.7,-46.92"/>
<text xml:space="preserve" text-anchor="middle" x="421.1" y="-14.96" font-family="Helvetica,sans-Serif" font-size="20.00">Pilot block 16 episodes</text>
</g>

<g id="edge5" class="edge">
<title>Budget matching&#45;&gt;Pilot block 16 episodes</title>
<path fill="none" stroke="black" d="M421.1,-107.16C421.1,-107.16 421.1,-59.11 421.1,-59.11"/>
<polygon fill="black" stroke="black" points="424.6,-59.11 421.1,-49.11 417.6,-59.11 424.6,-59.11"/>
</g>
</g>
</svg>
