<?xml version="1.0" encoding="UTF-8" standalone="no"?>
<!DOCTYPE svg PUBLIC "-//W3C//DTD SVG 1.1//EN"
 "http://www.w3.org/Graphics/SVG/1.1/DTD/svg11.dtd">


<svg width="1103pt" height="201pt"
 viewBox="0.00 0.00 1103.00 201.00" xmlns="http://www.w3.org/2000/svg" xmlns:xlink="http://www.w3.org/1999/xlink">
<g id="graph0" class="graph" transform="scale(1 1) rotate(0) translate(4 196.92)">
<title>G</title>
<polygon fill="white" stroke="none" points="-4,4 -4,-196.92 1099.25,-196.92 1099.25,4 -4,4"/>

<g id="node1" class="node">
<title>Hypothesis node</title>
<polygon fill="none" stroke="black" stroke-width="1.6" points="191.7,-94.92 0,-94.92 0,-48 191.7,-48 191.7,-94.92"/>
<text xml:space="preserve" text-anchor="middle" x="95.85" y="-62.96" font-family="Helvetica,sans-Serif" font-size="20.00">Hypothesis node</text>
</g>

<g id="node2" class="node">
<title>Decision node</title>
<polygon fill="none" stroke="black" stroke-width="1.6" points="422.65,-192.92 252.7,-192.92 252.7,-146 422.65,-146 422.65,-192.92"/>
<text xml:space="preserve" text-anchor="middle" x="337.67" y="-160.96" font-family="Helvetica,sans-Serif" font-size="20.00">Decision node</text>
</g>

<g id="edge1" class="edge">
<title>Hypothesis node&#45;&gt;Decision node</title>
<path fill="none" stroke="black" d="M180.25,-95.63C180.25,-122.34 180.25,-161.64 180.25,-161.64 180.25,-161.64 240.54,-161.64 240.54,-161.64"/>
<polygon fill="black" stroke="black" points="240.54,-165.14 250.54,-161.64 240.54,-158.14 240.54,-165.14"/>
</g>

<g id="node3" class="node">
<title>Experiment node</title>
<polygon fill="none" stroke="black" stroke-width="1.6" points="678.35,-192.92 483.65,-192.92 483.65,-146 678.35,-146 678.35,-192.92"/>
<text xml:space="preserve" text-anchor="middle" x="581" y="-160.96" font-family="Helvetica,sans-Serif" font-size="20.00">Experiment node</text>
</g>

<g id="edge2" class="edge">
<title>Decision node&#45;&gt;Experiment node</title>
<path fill="none" stroke="black" d="M423.12,-169.46C423.12,-169.46 471.35,-169.46 471.35,-169.46"/>
<polygon fill="black" stroke="black" points="471.35,-172.96 481.35,-169.46 471.35,-165.96 471.35,-172.96"/>
</g>

<g id="node4" class="node">
<title>Result node</title>
<polygon fill="none" stroke="black" stroke-width="1.6" points="889.43,-143.92 739.73,-143.92 739.73,-97 889.43,-97 889.43,-143.92"/>
<text xml:space="preserve" text-anchor="middle" x="814.58" y="-111.96" font-family="Helvetica,sans-Serif" font-size="20.00">Result node</text>
</g>

<g id="edge3" class="edge">
<title>Experiment node&#45;&gt;Result node</title>
<path fill="none" stroke="black" d="M678.91,-169.46C742.74,-169.46 814.25,-169.46 814.25,-169.46 814.25,-169.46 814.25,-156.19 814.25,-156.19"/>
<polygon fill="black" stroke="black" points="817.75,-156.19 814.25,-146.19 810.75,-156.19 817.75,-156.19"/>
</g>

<g id="edge7" class="edge">
<title>Result node&#45;&gt;Hypothesis node</title>
<path fill="none" stroke="black" d="M739.1,-120.46C572.15,-120.46 186.25,-120.46 186.25,-120.46 186.25,-120.46 186.25,-107.19 186.25,-107.19"/>
<polygon fill="black" stroke="black" points="189.75,-107.19 186.25,-97.19 182.75,-107.19 189.75,-107.19"/>
</g>

<g id="node5" class="node">
<title>Claim node</title>
<polygon fill="none" stroke="black" stroke-width="1.6" points="1095.25,-94.92 950.8,-94.92 950.8,-48 1095.25,-48 1095.25,-94.92"/>
<text xml:space="preserve" text-anchor="middle" x="1023.02" y="-62.96" font-family="Helvetica,sans-Serif" font-size="20.00">Claim node</text>
</g>

<g id="edge4" class="edge">
<title>Result node&#45;&gt;Claim node</title>
<path fill="none" stroke="black" d="M890.21,-120.46C949.93,-120.46 1023.25,-120.46 1023.25,-120.46 1023.25,-120.46 1023.25,-107.19 1023.25,-107.19"/>
<polygon fill="black" stroke="black" points="1026.75,-107.19 1023.25,-97.19 1019.75,-107.19 1026.75,-107.19"/>
</g>

<g id="node6" class="node">
<title>Source node</title>
<polygon fill="none" stroke="black" stroke-width="1.6" points="174.45,-192.92 17.25,-192.92 17.25,-146 174.45,-146 174.45,-192.92"/>
<text xml:space="preserve" text-anchor="middle" x="95.85" y="-160.96" font-family="Helvetica,sans-Serif" font-size="20.00">Source node</text>
</g>

<g id="edge5" class="edge">
<title>Source node&#45;&gt;Decision node</title>
<path fill="none" stroke="black" d="M175.03,-177.28C175.03,-177.28 240.55,-177.28 240.55,-177.28"/>
<polygon fill="black" stroke="black" points="240.55,-180.78 250.55,-177.28 240.55,-173.78 240.55,-180.78"/>
</g>

<g id="node7" class="node">
<title>Figure node</title>
<polygon fill="none" stroke="black" stroke-width="1.6" points="889.8,-46.92 739.35,-46.92 739.35,0 889.8,0 889.8,-46.92"/>
<text xml:space="preserve" text-anchor="middle" x="814.58" y="-14.96" font-family="Helvetica,sans-Serif" font-size="20.00">Figure node</text>
</g>

<g id="edge6" class="edge">
<title>Figure node&#45;&gt;Claim node</title>
<path fill="none" stroke="black" d="M890.5,-23.46C950.17,-23.46 1023.25,-23.46 1023.25,-23.46 1023.25,-23.46 1023.25,-35.95 1023.25,-35.95"/>
<polygon fill="black" stroke="black" points="1019.75,-35.95 1023.25,-45.95 1026.75,-35.95 1019.75,-35.95"/>
</g>
</g>
</svg>
